<?xml version="1.0" encoding="utf-8"?>
<!-- Generator: Adobe Illustrator 29.0.1, SVG Export Plug-In . SVG Version: 9.03 Build 54978)  -->
<svg version="1.1" id="Layer_1" xmlns="http://www.w3.org/2000/svg" xmlns:xlink="http://www.w3.org/1999/xlink" x="0px" y="0px"
	 viewBox="0 0 25 25" style="enable-background:new 0 0 25 25;" xml:space="preserve">
<style type="text/css">
	.Drop_x0020_Shadow{fill:none;}
	.Round_x0020_Corners_x0020_2_x0020_pt{fill:#FFFFFF;stroke:#000000;stroke-miterlimit:10;}
	.Live_x0020_Reflect_x0020_X{fill:none;}
	.Bevel_x0020_Soft{fill:url(#SVGID_1_);}
	.Dusk{fill:#FFFFFF;}
	.Foliage_GS{fill:#FFDD00;}
	.Pompadour_GS{fill-rule:evenodd;clip-rule:evenodd;fill:#44ADE2;}
	.st0{fill:#51BC82;}
</style>
<linearGradient id="SVGID_1_" gradientUnits="userSpaceOnUse" x1="-1907.5" y1="-1139.5" x2="-1906.7928" y2="-1138.7928">
	<stop  offset="0" style="stop-color:#DEDFE3"/>
	<stop  offset="0.1738" style="stop-color:#D8D9DD"/>
	<stop  offset="0.352" style="stop-color:#C9CACD"/>
	<stop  offset="0.5323" style="stop-color:#B4B5B8"/>
	<stop  offset="0.7139" style="stop-color:#989A9C"/>
	<stop  offset="0.8949" style="stop-color:#797C7E"/>
	<stop  offset="1" style="stop-color:#656B6C"/>
</linearGradient>
<path class="st0" d="M16.9,1.1c-0.7,0.7-0.7,1.8-0.1,2.5c0.7,0.7,1.8,0.7,2.5,0.1C20,2.9,20,1.8,19.4,1.1
	C18.7,0.4,17.6,0.4,16.9,1.1z M21.8,6.2C21.1,6.9,21,8,21.7,8.7c0.7,0.7,1.8,0.7,2.5,0.1c0.7-0.7,0.7-1.8,0.1-2.5
	C23.6,5.6,22.5,5.5,21.8,6.2z M21.8,1.9c-0.5,0.5-0.5,1.3,0,1.8c0.5,0.5,1.3,0.5,1.8,0c0.5-0.5,0.5-1.3,0-1.8
	C23.2,1.4,22.3,1.4,21.8,1.9z M16.7,4.4L16,3.7l-2.2,2l0.7,0.7L16.7,4.4z M21.5,9.5l-0.7-0.7l-2.2,2l0.7,0.7L21.5,9.5z M20.9,5.2
	l-0.7-0.7l-3,2.9l0.7,0.7L20.9,5.2z M8.1,23.9c0.7-0.7,0.7-1.8,0.1-2.5c-0.7-0.7-1.8-0.7-2.5-0.1S5,23.2,5.6,23.9S7.4,24.6,8.1,23.9
	z M3.2,18.8C3.9,18.1,4,17,3.3,16.3c-0.7-0.7-1.8-0.7-2.5-0.1c-0.7,0.7-0.7,1.8-0.1,2.5C1.4,19.4,2.5,19.5,3.2,18.8z M3.2,23.1
	c0.5-0.5,0.5-1.3,0-1.8c-0.5-0.5-1.3-0.5-1.8,0c-0.5,0.5-0.5,1.3,0,1.8C1.8,23.6,2.7,23.6,3.2,23.1z M11.2,19.3l-0.7-0.7l-2.2,2
	L9,21.3L11.2,19.3z M6.3,14.2l-0.7-0.7l-2.2,2l0.7,0.7L6.3,14.2z M7.8,17.6l-0.7-0.7l-3,2.9l0.7,0.7L7.8,17.6z M23.9,16.9
	c-0.7-0.7-1.8-0.7-2.5-0.1c-0.7,0.7-0.7,1.8-0.1,2.5c0.7,0.7,1.8,0.7,2.5,0.1C24.6,18.7,24.6,17.6,23.9,16.9z M18.8,21.8
	c-0.7-0.7-1.8-0.7-2.5-0.1c-0.7,0.7-0.7,1.8-0.1,2.5c0.7,0.7,1.8,0.7,2.5,0.1C19.4,23.6,19.5,22.5,18.8,21.8z M23.1,21.8
	c-0.5-0.5-1.3-0.5-1.8,0c-0.5,0.5-0.5,1.3,0,1.8c0.5,0.5,1.3,0.5,1.8,0C23.6,23.2,23.6,22.3,23.1,21.8z M21.3,16l-2-2.2l-0.7,0.7
	l2,2.2L21.3,16z M16.2,20.9l-2-2.2l-0.7,0.7l2,2.2L16.2,20.9z M20.5,20.2l-2.9-3l-0.7,0.7l2.9,3L20.5,20.2z M1.1,8.1
	c0.7,0.7,1.8,0.7,2.5,0.1c0.7-0.7,0.7-1.8,0.1-2.5S1.8,5,1.1,5.6S0.4,7.4,1.1,8.1z M6.2,3.2C6.9,3.9,8,4,8.7,3.3
	c0.7-0.7,0.7-1.8,0.1-2.5C8.1,0.1,7,0.1,6.3,0.8S5.5,2.5,6.2,3.2z M1.9,3.2c0.5,0.5,1.3,0.5,1.8,0s0.5-1.3,0-1.8s-1.3-0.5-1.8,0
	S1.4,2.7,1.9,3.2z M6.4,10.5l-2-2.2L3.7,9l2,2.2L6.4,10.5z M11.5,5.6l-2-2.2L8.8,4.1l2,2.2L11.5,5.6z M8.1,7.2l-2.9-3L4.5,4.8l2.9,3
	L8.1,7.2z M16.5,16.7h-8v-8h8V16.7z"/>
</svg>
