<svg version="1.1" id="Layer_1" xmlns="http://www.w3.org/2000/svg" x="0" y="0" viewBox="0 0 50 50" style="enable-background:new 0 0 50 50" xml:space="preserve">
    <style>
        .Drop_x0020_Shadow{fill:none}.Round_x0020_Corners_x0020_2_x0020_pt{fill:#fff;stroke:#000;stroke-miterlimit:10}.Live_x0020_Reflect_x0020_X{fill:none}.Bevel_x0020_Soft{fill:url(#SVGID_1_)}.Dusk{fill:#fff}.Foliage_GS{fill:#fd0}.Pompadour_GS{fill-rule:evenodd;clip-rule:evenodd;fill:#44ade2}
    </style>
    <linearGradient id="SVGID_1_" gradientUnits="userSpaceOnUse" x1="-1895" y1="-1127" x2="-1894.293" y2="-1126.293">
        <stop offset="0" style="stop-color:#dedfe3"/>
        <stop offset=".174" style="stop-color:#d8d9dd"/>
        <stop offset=".352" style="stop-color:#c9cacd"/>
        <stop offset=".532" style="stop-color:#b4b5b8"/>
        <stop offset=".714" style="stop-color:#989a9c"/>
        <stop offset=".895" style="stop-color:#797c7e"/>
        <stop offset="1" style="stop-color:#656b6c"/>
    </linearGradient>
    <path d="M33.9 2c-1.4 1.3-1.5 3.6-.1 5 1.3 1.4 3.6 1.5 5 .1 1.4-1.3 1.5-3.6.1-5s-3.6-1.5-5-.1zm9.8 10.3c-1.4 1.3-1.5 3.6-.1 5s3.6 1.5 5 .1c1.4-1.3 1.5-3.6.1-5s-3.6-1.4-5-.1zm.1-8.7c-1 1-1.1 2.6-.1 3.6s2.6 1.1 3.6.1 1.1-2.6.1-3.6-2.6-1.1-3.6-.1zm-10.4 5-1.3-1.4-4.3 4.1 1.3 1.4 4.3-4.1zm9.8 10.3-1.3-1.4-4.3 4.1 1.3 1.4 4.3-4.1zm-1.3-8.5L40.5 9l-6.1 5.8 1.3 1.4 6.2-5.8zM16.1 48c1.4-1.3 1.5-3.6.1-5-1.3-1.4-3.6-1.5-5-.1-1.4 1.3-1.5 3.6-.1 5s3.6 1.5 5 .1zM6.3 37.7c1.4-1.3 1.5-3.6.1-5-1.3-1.4-3.6-1.5-5-.1-1.4 1.3-1.5 3.6-.1 5s3.6 1.4 5 .1zm-.1 8.7c1-1 1.1-2.6.1-3.6s-2.6-1.1-3.6-.1-1.1 2.6-.1 3.6 2.6 1.1 3.6.1zm16.1-7.7L21 37.3l-4.3 4.1 1.3 1.4 4.3-4.1zm-9.8-10.3L11.2 27l-4.3 4.1 1.3 1.4 4.3-4.1zm3.1 6.8-1.3-1.4-6.1 5.8L9.5 41l6.1-5.8zM48 33.9c-1.3-1.4-3.6-1.5-5-.1-1.4 1.3-1.5 3.6-.1 5 1.3 1.4 3.6 1.5 5 .1s1.5-3.6.1-5zm-10.3 9.8c-1.3-1.4-3.6-1.5-5-.1-1.4 1.3-1.5 3.6-.1 5 1.3 1.4 3.6 1.5 5 .1s1.4-3.6.1-5zm8.7.1c-1-1-2.6-1.1-3.6-.1s-1.1 2.6-.1 3.6 2.6 1.1 3.6.1 1.1-2.6.1-3.6zm-3.6-11.7-4.1-4.3-1.4 1.2 4.1 4.3 1.4-1.2zm-10.3 9.7-4.1-4.3-1.4 1.3 4.1 4.3 1.4-1.3zm8.5-1.3-5.8-6.1-1.4 1.3 5.8 6.1 1.4-1.3zM2 16.1c1.3 1.4 3.6 1.5 5 .1s1.5-3.6.1-5-3.6-1.5-5-.1-1.5 3.6-.1 5zm10.3-9.8c1.3 1.4 3.6 1.5 5 .1s1.5-3.6.1-5-3.6-1.5-5-.1-1.4 3.6-.1 5zm-8.7-.1c1 1 2.6 1.1 3.6.1s1.1-2.6.1-3.6-2.6-1.1-3.6-.1-1.1 2.6-.1 3.6zM12.7 21l-4.1-4.3L7.2 18l4.1 4.3 1.4-1.3zM23 11.2l-4.1-4.3-1.4 1.3 4.1 4.3 1.4-1.3zm-6.8 3.1-5.8-6.1L9 9.5l5.8 6.1 1.4-1.3zm16.9 19.1H16.9V17.2h16.2v16.2z" style="fill:#51bc82"/>
</svg>
