<svg xmlns="http://www.w3.org/2000/svg" height="35" width="196" viewBox="0 0 196 35" style="enable-background:new 0 0 196 35" xml:space="preserve">
    <switch>
        <g>
            <path d="M42.9 11.2v5.4h8.9v1.8h-8.9v5.4h9.9v1.7H41.1v-16h11.8v1.7h-10zm30.8-1.7-6.5 16h-2.1l-6.5-16h2l5.5 13.9 5.5-13.9h2.1zm8.6 1.7v5.4h8.9v1.8h-8.9v5.4h9.9v1.7H80.5v-16h11.8v1.7h-10zm19.5 14.3H100v-16h7.7c3.3 0 5.4 2 5.4 5 0 3.1-2.1 4.1-3.9 4.5l4.2 6.4h-2.1l-3.9-6.1h-5.6v6.2zm0-7.9h5.5c1.7 0 3.9-.7 3.9-3.1 0-2-1.5-3.3-3.8-3.3h-5.6v6.4zm33.3-.1c0 5-3.5 8-7.3 8H121v-16h6.7c3.9 0 7.4 3 7.4 8zm-1.8 0c0-3.4-2.2-6.3-5.6-6.3h-4.9v12.5h4.9c3.4.1 5.6-2.8 5.6-6.2zm24.7 0c0 4.5-3.3 8.2-8.1 8.2-4.9 0-8.1-3.6-8.1-8.2 0-4.5 3.3-8.2 8.1-8.2 4.9 0 8.1 3.7 8.1 8.2zm-1.8 0c0-3.6-2.4-6.4-6.3-6.4s-6.3 2.8-6.3 6.4c0 3.6 2.4 6.4 6.3 6.4s6.3-2.8 6.3-6.4zm20.2-6.3h-5.6v14.2H169V11.2h-5.6V9.5h13v1.7zm19.2 9.9c0 3-2.4 4.6-6.3 4.6-4.7 0-6.7-2.1-6.9-5h1.9c.1 2.3 2.4 3.3 5.1 3.3 2.7 0 4.4-.9 4.4-2.8 0-3.9-10.9-1.9-10.9-7.4 0-2.6 2-4.4 6-4.4 4.2 0 6.2 2.2 6.3 4.6h-1.9c-.2-1.6-1.5-2.9-4.5-2.9-3.6 0-4.2 1.6-4.2 2.7 0 3.6 11 1.7 11 7.3z" style="fill:#fff"/>
            <path d="M21.3 3.1c-.9.8-.9 2.2-.1 3.1s2.2.9 3.1.1c.9-.8.9-2.2.1-3.1s-2.2-.9-3.1-.1zm6.2 6.5c-.9.8-.9 2.2-.1 3.1s2.2.9 3.1.1c.9-.8.9-2.2.1-3.1s-2.3-1-3.1-.1zm0-5.5c-.6.6-.7 1.6-.1 2.3.6.6 1.6.7 2.3.1s.7-1.6.1-2.3c-.6-.7-1.6-.7-2.3-.1zM21 7.3l-.8-.9L17.5 9l.8.9L21 7.3zm6.1 6.4-.8-.9-2.7 2.6.8.9 2.7-2.6zm-.8-5.3-.8-.9-3.8 3.6.8.9 3.8-3.6zm-16 23.5c.9-.8.9-2.2.1-3.1-.8-.9-2.2-.9-3.1-.1-.9.8-.9 2.2-.1 3.1s2.2.9 3.1.1zm-6.2-6.5c.9-.8.9-2.2.1-3.1-.8-.9-2.2-.9-3.1-.1s-.9 2.3-.1 3.1c.9.9 2.3 1 3.1.1zm0 5.5c.6-.6.7-1.6.1-2.3s-1.6-.7-2.3-.1-.7 1.6-.1 2.3 1.6.7 2.3.1zm10-4.8-.8-.9-2.7 2.6.8.9 2.7-2.6zM8 19.6l-.8-.9-2.7 2.6.8.9L8 19.6zm1.9 4.3-.8-.9-3.8 3.6.8.9 3.8-3.6zm20.3-.9c-.8-.9-2.2-.9-3.1-.1-.9.8-.9 2.2-.1 3.1.8.9 2.2.9 3.1.1.9-.8.9-2.2.1-3.1zm-6.5 6.2c-.8-.9-2.2-.9-3.1-.1-.9.8-.9 2.2-.1 3.1.8.9 2.2.9 3.1.1.9-.9 1-2.3.1-3.1zm5.5 0c-.6-.6-1.6-.7-2.3-.1-.6.6-.7 1.6-.1 2.3.6.6 1.6.7 2.3.1.7-.6.7-1.6.1-2.3zm-2.3-7.3-2.6-2.7-.8.8 2.6 2.7.8-.8zM20.5 28l-2.6-2.7-.9.8 2.6 2.7.9-.8zm5.3-.8-3.6-3.8-.9.8 3.6 3.8.9-.8zM1.4 12c.8.9 2.2.9 3.1.1.9-.8.9-2.2.1-3.1-.8-1-2.2-1-3.1-.2-.9.9-.9 2.3-.1 3.2zm6.5-6.2c.8.9 2.2.9 3.1.1s.9-2.2.1-3.1c-.8-.9-2.2-.9-3.1-.1S7 5 7.9 5.8zm-5.5 0c.6.6 1.6.6 2.3 0s.7-1.6.1-2.3-1.7-.6-2.3 0-.7 1.6-.1 2.3zM8.1 15l-2.6-2.7-.9.8 2.6 2.7.9-.8zm6.5-6.1L12 6.1l-.9.9 2.6 2.7.9-.8zm-4.3 1.9L6.7 7l-.9.8 3.6 3.8.9-.8zm10.5 11.9H10.7V12.6h10.1v10.1z" style="fill:#06d889"/>
        </g>
    </switch>
</svg>
